<svg xmlns="http://www.w3.org/2000/svg" xmlns:xlink="http://www.w3.org/1999/xlink" width="500" zoomAndPan="magnify" viewBox="0 0 375 374.999991" height="500" preserveAspectRatio="xMidYMid meet" version="1.0"><defs><g/><clipPath id="2248c50448"><path d="M 77.179688 176 L 105.679688 176 L 105.679688 204.84375 L 77.179688 204.84375 Z M 77.179688 176 " clip-rule="nonzero"/></clipPath><clipPath id="2d75072fd4"><path d="M 77.179688 185 L 97 185 L 97 204.84375 L 77.179688 204.84375 Z M 77.179688 185 " clip-rule="nonzero"/></clipPath><clipPath id="e99c73a659"><path d="M 87 167.34375 L 96 167.34375 L 96 175 L 87 175 Z M 87 167.34375 " clip-rule="nonzero"/></clipPath><clipPath id="fcb38e4879"><rect x="0" width="188" y="0" height="16"/></clipPath></defs><g clip-path="url(#2248c50448)"><path fill="#3771c1" d="M 91.335938 176.71875 C 83.515625 176.71875 77.179688 183.054688 77.179688 190.875 C 77.179688 191.042969 77.1875 191.324219 77.191406 191.492188 C 77.71875 191.125 78.339844 191.019531 78.992188 191.019531 L 80.894531 191.019531 C 80.941406 185.316406 85.597656 180.550781 91.335938 180.550781 C 97.101562 180.550781 101.777344 185.167969 101.777344 190.933594 C 101.777344 196.703125 97.0625 201.347656 91.296875 201.347656 C 91.273438 201.347656 91.199219 201.316406 91.199219 201.316406 L 91.199219 203.269531 C 91.199219 203.925781 91.039062 204.523438 90.703125 205.015625 C 90.902344 205.023438 91.117188 205.03125 91.316406 205.03125 C 99.132812 205.03125 105.480469 198.691406 105.480469 190.875 C 105.480469 183.054688 99.152344 176.71875 91.335938 176.71875 Z M 91.335938 176.71875 " fill-opacity="1" fill-rule="nonzero"/></g><g clip-path="url(#2d75072fd4)"><path fill="#629deb" d="M 94.679688 192.277344 L 89.984375 192.277344 L 89.984375 187.578125 C 89.984375 186.582031 89.167969 185.769531 88.171875 185.769531 L 85.5 185.769531 C 84.503906 185.769531 83.691406 186.582031 83.691406 187.578125 L 83.691406 192.277344 L 78.992188 192.277344 C 77.996094 192.277344 77.179688 193.09375 77.179688 194.089844 L 77.179688 196.757812 C 77.179688 197.753906 77.996094 198.570312 78.992188 198.570312 L 83.691406 198.570312 L 83.691406 203.269531 C 83.691406 204.265625 84.503906 205.078125 85.5 205.078125 L 88.171875 205.078125 C 89.167969 205.078125 89.984375 204.265625 89.984375 203.269531 L 89.984375 198.570312 L 94.683594 198.570312 C 95.679688 198.570312 96.492188 197.753906 96.492188 196.757812 L 96.492188 194.089844 C 96.492188 193.09375 95.675781 192.277344 94.679688 192.277344 Z M 94.679688 192.277344 " fill-opacity="1" fill-rule="nonzero"/></g><g clip-path="url(#e99c73a659)"><path fill="#3771c1" d="M 95.046875 171.074219 C 95.046875 173.125 93.382812 174.785156 91.335938 174.785156 C 89.285156 174.785156 87.625 173.121094 87.625 171.074219 C 87.625 169.023438 89.285156 167.363281 91.335938 167.363281 C 93.382812 167.363281 95.046875 169.023438 95.046875 171.074219 Z M 95.046875 171.074219 " fill-opacity="1" fill-rule="nonzero"/></g><g transform="matrix(1, 0, 0, 1, 102, 204)"><g clip-path="url(#fcb38e4879)"><g fill="#3771c1" fill-opacity="1"><g transform="translate(1.621046, 11.577099)"><g><path d="M 4.09375 -8 L 0.984375 -8 L 1.140625 -8.796875 L 8.28125 -8.796875 L 8.09375 -8 L 5 -8 L 3.40625 0 L 2.484375 0 Z M 4.09375 -8 "/></g></g></g><g fill="#3771c1" fill-opacity="1"><g transform="translate(9.8799, 11.577099)"><g><path d="M 7.875 -6.609375 L 6.546875 0 L 5.703125 0 L 5.90625 -1.0625 C 5.289062 -0.3125 4.441406 0.0625 3.359375 0.0625 C 2.617188 0.0625 2.039062 -0.125 1.625 -0.5 C 1.207031 -0.882812 1 -1.414062 1 -2.09375 C 1 -2.332031 1.023438 -2.582031 1.078125 -2.84375 L 1.84375 -6.609375 L 2.734375 -6.609375 L 1.96875 -2.84375 C 1.925781 -2.601562 1.90625 -2.40625 1.90625 -2.25 C 1.90625 -1.757812 2.046875 -1.382812 2.328125 -1.125 C 2.609375 -0.863281 3.03125 -0.734375 3.59375 -0.734375 C 4.300781 -0.734375 4.882812 -0.929688 5.34375 -1.328125 C 5.800781 -1.722656 6.113281 -2.300781 6.28125 -3.0625 L 6.984375 -6.609375 Z M 7.875 -6.609375 "/></g></g></g><g fill="#3771c1" fill-opacity="1"><g transform="translate(19.383239, 11.577099)"><g/></g></g><g fill="#3771c1" fill-opacity="1"><g transform="translate(23.720077, 11.577099)"><g><path d="M 5.125 -6.671875 C 5.6875 -6.671875 6.1875 -6.554688 6.625 -6.328125 C 7.0625 -6.097656 7.398438 -5.773438 7.640625 -5.359375 C 7.890625 -4.941406 8.015625 -4.445312 8.015625 -3.875 C 8.015625 -3.125 7.851562 -2.445312 7.53125 -1.84375 C 7.207031 -1.25 6.757812 -0.78125 6.1875 -0.4375 C 5.613281 -0.101562 4.972656 0.0625 4.265625 0.0625 C 3.628906 0.0625 3.09375 -0.0664062 2.65625 -0.328125 C 2.226562 -0.585938 1.921875 -0.960938 1.734375 -1.453125 L 1.453125 0 L 0.59375 0 L 2.453125 -9.328125 L 3.34375 -9.328125 L 2.609375 -5.625 C 2.921875 -5.957031 3.289062 -6.210938 3.71875 -6.390625 C 4.144531 -6.578125 4.613281 -6.671875 5.125 -6.671875 Z M 4.25 -0.734375 C 4.789062 -0.734375 5.273438 -0.863281 5.703125 -1.125 C 6.140625 -1.382812 6.484375 -1.75 6.734375 -2.21875 C 6.984375 -2.695312 7.109375 -3.234375 7.109375 -3.828125 C 7.109375 -4.472656 6.914062 -4.976562 6.53125 -5.34375 C 6.15625 -5.707031 5.625 -5.890625 4.9375 -5.890625 C 4.382812 -5.890625 3.890625 -5.753906 3.453125 -5.484375 C 3.023438 -5.222656 2.6875 -4.851562 2.4375 -4.375 C 2.195312 -3.90625 2.078125 -3.375 2.078125 -2.78125 C 2.078125 -2.132812 2.265625 -1.628906 2.640625 -1.265625 C 3.023438 -0.910156 3.5625 -0.734375 4.25 -0.734375 Z M 4.25 -0.734375 "/></g></g></g><g fill="#3771c1" fill-opacity="1"><g transform="translate(33.286281, 11.577099)"><g><path d="M 1.90625 -6.609375 L 2.796875 -6.609375 L 1.484375 0 L 0.59375 0 Z M 2.734375 -8.0625 C 2.554688 -8.0625 2.410156 -8.117188 2.296875 -8.234375 C 2.179688 -8.359375 2.125 -8.5 2.125 -8.65625 C 2.125 -8.84375 2.1875 -9 2.3125 -9.125 C 2.445312 -9.257812 2.613281 -9.328125 2.8125 -9.328125 C 2.988281 -9.328125 3.132812 -9.269531 3.25 -9.15625 C 3.375 -9.050781 3.4375 -8.921875 3.4375 -8.765625 C 3.4375 -8.566406 3.367188 -8.398438 3.234375 -8.265625 C 3.097656 -8.128906 2.929688 -8.0625 2.734375 -8.0625 Z M 2.734375 -8.0625 "/></g></g></g><g fill="#3771c1" fill-opacity="1"><g transform="translate(37.711113, 11.577099)"><g><path d="M 1.421875 -3.0625 C 1.410156 -3 1.40625 -2.910156 1.40625 -2.796875 C 1.40625 -2.117188 1.59375 -1.601562 1.96875 -1.25 C 2.351562 -0.90625 2.925781 -0.734375 3.6875 -0.734375 C 4.125 -0.734375 4.53125 -0.804688 4.90625 -0.953125 C 5.289062 -1.097656 5.601562 -1.300781 5.84375 -1.5625 L 6.25 -0.921875 C 5.9375 -0.609375 5.546875 -0.363281 5.078125 -0.1875 C 4.617188 -0.0195312 4.128906 0.0625 3.609375 0.0625 C 2.648438 0.0625 1.894531 -0.1875 1.34375 -0.6875 C 0.800781 -1.195312 0.53125 -1.882812 0.53125 -2.75 C 0.53125 -3.488281 0.6875 -4.15625 1 -4.75 C 1.3125 -5.34375 1.742188 -5.8125 2.296875 -6.15625 C 2.859375 -6.5 3.488281 -6.671875 4.1875 -6.671875 C 5.070312 -6.671875 5.769531 -6.421875 6.28125 -5.921875 C 6.800781 -5.421875 7.0625 -4.734375 7.0625 -3.859375 C 7.0625 -3.617188 7.035156 -3.351562 6.984375 -3.0625 Z M 4.15625 -5.90625 C 3.5 -5.90625 2.9375 -5.707031 2.46875 -5.3125 C 2 -4.925781 1.679688 -4.394531 1.515625 -3.71875 L 6.21875 -3.71875 C 6.226562 -3.78125 6.234375 -3.863281 6.234375 -3.96875 C 6.234375 -4.582031 6.046875 -5.054688 5.671875 -5.390625 C 5.296875 -5.734375 4.789062 -5.90625 4.15625 -5.90625 Z M 4.15625 -5.90625 "/></g></g></g><g fill="#3771c1" fill-opacity="1"><g transform="translate(46.347083, 11.577099)"><g><path d="M 5.125 -6.671875 C 5.875 -6.671875 6.457031 -6.476562 6.875 -6.09375 C 7.289062 -5.707031 7.5 -5.179688 7.5 -4.515625 C 7.5 -4.273438 7.472656 -4.023438 7.421875 -3.765625 L 6.671875 0 L 5.765625 0 L 6.53125 -3.765625 C 6.570312 -4.003906 6.59375 -4.207031 6.59375 -4.375 C 6.59375 -4.851562 6.445312 -5.21875 6.15625 -5.46875 C 5.863281 -5.726562 5.4375 -5.859375 4.875 -5.859375 C 4.164062 -5.859375 3.578125 -5.660156 3.109375 -5.265625 C 2.648438 -4.878906 2.34375 -4.304688 2.1875 -3.546875 L 1.484375 0 L 0.59375 0 L 1.90625 -6.609375 L 2.75 -6.609375 L 2.546875 -5.5625 C 3.171875 -6.300781 4.03125 -6.671875 5.125 -6.671875 Z M 5.125 -6.671875 "/></g></g></g><g fill="#3771c1" fill-opacity="1"><g transform="translate(55.900708, 11.577099)"><g><path d="M 1.421875 -3.0625 C 1.410156 -3 1.40625 -2.910156 1.40625 -2.796875 C 1.40625 -2.117188 1.59375 -1.601562 1.96875 -1.25 C 2.351562 -0.90625 2.925781 -0.734375 3.6875 -0.734375 C 4.125 -0.734375 4.53125 -0.804688 4.90625 -0.953125 C 5.289062 -1.097656 5.601562 -1.300781 5.84375 -1.5625 L 6.25 -0.921875 C 5.9375 -0.609375 5.546875 -0.363281 5.078125 -0.1875 C 4.617188 -0.0195312 4.128906 0.0625 3.609375 0.0625 C 2.648438 0.0625 1.894531 -0.1875 1.34375 -0.6875 C 0.800781 -1.195312 0.53125 -1.882812 0.53125 -2.75 C 0.53125 -3.488281 0.6875 -4.15625 1 -4.75 C 1.3125 -5.34375 1.742188 -5.8125 2.296875 -6.15625 C 2.859375 -6.5 3.488281 -6.671875 4.1875 -6.671875 C 5.070312 -6.671875 5.769531 -6.421875 6.28125 -5.921875 C 6.800781 -5.421875 7.0625 -4.734375 7.0625 -3.859375 C 7.0625 -3.617188 7.035156 -3.351562 6.984375 -3.0625 Z M 4.15625 -5.90625 C 3.5 -5.90625 2.9375 -5.707031 2.46875 -5.3125 C 2 -4.925781 1.679688 -4.394531 1.515625 -3.71875 L 6.21875 -3.71875 C 6.226562 -3.78125 6.234375 -3.863281 6.234375 -3.96875 C 6.234375 -4.582031 6.046875 -5.054688 5.671875 -5.390625 C 5.296875 -5.734375 4.789062 -5.90625 4.15625 -5.90625 Z M 4.15625 -5.90625 "/></g></g></g><g fill="#3771c1" fill-opacity="1"><g transform="translate(64.536678, 11.577099)"><g><path d="M 2.515625 0.0625 C 1.984375 0.0625 1.476562 -0.0078125 1 -0.15625 C 0.519531 -0.3125 0.148438 -0.503906 -0.109375 -0.734375 L 0.3125 -1.453125 C 0.5625 -1.234375 0.890625 -1.054688 1.296875 -0.921875 C 1.710938 -0.785156 2.148438 -0.71875 2.609375 -0.71875 C 3.234375 -0.71875 3.710938 -0.816406 4.046875 -1.015625 C 4.390625 -1.222656 4.5625 -1.519531 4.5625 -1.90625 C 4.5625 -2.113281 4.492188 -2.28125 4.359375 -2.40625 C 4.222656 -2.53125 4.050781 -2.625 3.84375 -2.6875 C 3.644531 -2.757812 3.351562 -2.835938 2.96875 -2.921875 C 2.507812 -3.015625 2.132812 -3.113281 1.84375 -3.21875 C 1.5625 -3.320312 1.316406 -3.484375 1.109375 -3.703125 C 0.910156 -3.921875 0.8125 -4.222656 0.8125 -4.609375 C 0.8125 -5.234375 1.070312 -5.734375 1.59375 -6.109375 C 2.113281 -6.484375 2.8125 -6.671875 3.6875 -6.671875 C 4.113281 -6.671875 4.53125 -6.613281 4.9375 -6.5 C 5.34375 -6.382812 5.671875 -6.234375 5.921875 -6.046875 L 5.546875 -5.328125 C 5.296875 -5.515625 5 -5.65625 4.65625 -5.75 C 4.320312 -5.851562 3.972656 -5.90625 3.609375 -5.90625 C 3.003906 -5.90625 2.535156 -5.796875 2.203125 -5.578125 C 1.867188 -5.359375 1.703125 -5.0625 1.703125 -4.6875 C 1.703125 -4.46875 1.769531 -4.289062 1.90625 -4.15625 C 2.050781 -4.03125 2.226562 -3.929688 2.4375 -3.859375 C 2.65625 -3.796875 2.953125 -3.722656 3.328125 -3.640625 C 3.773438 -3.546875 4.140625 -3.445312 4.421875 -3.34375 C 4.703125 -3.25 4.941406 -3.09375 5.140625 -2.875 C 5.347656 -2.65625 5.453125 -2.363281 5.453125 -2 C 5.453125 -1.351562 5.179688 -0.847656 4.640625 -0.484375 C 4.109375 -0.117188 3.398438 0.0625 2.515625 0.0625 Z M 2.515625 0.0625 "/></g></g></g><g fill="#3771c1" fill-opacity="1"><g transform="translate(71.727036, 11.577099)"><g><path d="M 2.03125 -2 C 1.988281 -1.800781 1.96875 -1.660156 1.96875 -1.578125 C 1.96875 -0.992188 2.289062 -0.703125 2.9375 -0.703125 C 3.3125 -0.703125 3.648438 -0.816406 3.953125 -1.046875 L 4.15625 -0.359375 C 3.78125 -0.078125 3.289062 0.0625 2.6875 0.0625 C 2.195312 0.0625 1.804688 -0.0664062 1.515625 -0.328125 C 1.222656 -0.597656 1.078125 -0.972656 1.078125 -1.453125 C 1.078125 -1.628906 1.09375 -1.800781 1.125 -1.96875 L 1.90625 -5.859375 L 0.734375 -5.859375 L 0.875 -6.609375 L 2.046875 -6.609375 L 2.34375 -8.0625 L 3.234375 -8.0625 L 2.9375 -6.609375 L 4.953125 -6.609375 L 4.8125 -5.859375 L 2.796875 -5.859375 Z M 2.03125 -2 "/></g></g></g><g fill="#3771c1" fill-opacity="1"><g transform="translate(77.874039, 11.577099)"><g><path d="M 7.953125 -6.609375 L 6.625 0 L 5.765625 0 L 5.984375 -1.046875 C 5.671875 -0.691406 5.296875 -0.414062 4.859375 -0.21875 C 4.421875 -0.03125 3.9375 0.0625 3.40625 0.0625 C 2.84375 0.0625 2.34375 -0.046875 1.90625 -0.265625 C 1.46875 -0.492188 1.128906 -0.820312 0.890625 -1.25 C 0.648438 -1.675781 0.53125 -2.171875 0.53125 -2.734375 C 0.53125 -3.484375 0.691406 -4.15625 1.015625 -4.75 C 1.335938 -5.34375 1.78125 -5.8125 2.34375 -6.15625 C 2.914062 -6.5 3.554688 -6.671875 4.265625 -6.671875 C 4.890625 -6.671875 5.414062 -6.546875 5.84375 -6.296875 C 6.269531 -6.046875 6.582031 -5.691406 6.78125 -5.234375 L 7.0625 -6.609375 Z M 3.59375 -0.734375 C 4.144531 -0.734375 4.632812 -0.863281 5.0625 -1.125 C 5.5 -1.382812 5.84375 -1.75 6.09375 -2.21875 C 6.34375 -2.695312 6.46875 -3.234375 6.46875 -3.828125 C 6.46875 -4.472656 6.273438 -4.976562 5.890625 -5.34375 C 5.515625 -5.707031 4.984375 -5.890625 4.296875 -5.890625 C 3.742188 -5.890625 3.25 -5.753906 2.8125 -5.484375 C 2.375 -5.210938 2.03125 -4.835938 1.78125 -4.359375 C 1.539062 -3.890625 1.421875 -3.363281 1.421875 -2.78125 C 1.421875 -2.132812 1.609375 -1.628906 1.984375 -1.265625 C 2.367188 -0.910156 2.90625 -0.734375 3.59375 -0.734375 Z M 3.59375 -0.734375 "/></g></g></g><g fill="#3771c1" fill-opacity="1"><g transform="translate(87.440244, 11.577099)"><g><path d="M 2.53125 -5.40625 C 2.820312 -5.832031 3.1875 -6.148438 3.625 -6.359375 C 4.070312 -6.566406 4.613281 -6.671875 5.25 -6.671875 L 5.078125 -5.796875 L 4.828125 -5.8125 C 4.117188 -5.8125 3.535156 -5.601562 3.078125 -5.1875 C 2.617188 -4.78125 2.3125 -4.171875 2.15625 -3.359375 L 1.484375 0 L 0.59375 0 L 1.90625 -6.609375 L 2.75 -6.609375 Z M 2.53125 -5.40625 "/></g></g></g><g fill="#3771c1" fill-opacity="1"><g transform="translate(93.524381, 11.577099)"><g/></g></g><g fill="#3771c1" fill-opacity="1"><g transform="translate(97.86122, 11.577099)"><g><path d="M 5.125 -6.671875 C 5.875 -6.671875 6.457031 -6.476562 6.875 -6.09375 C 7.289062 -5.707031 7.5 -5.179688 7.5 -4.515625 C 7.5 -4.273438 7.472656 -4.023438 7.421875 -3.765625 L 6.671875 0 L 5.765625 0 L 6.53125 -3.765625 C 6.570312 -4.003906 6.59375 -4.207031 6.59375 -4.375 C 6.59375 -4.851562 6.445312 -5.21875 6.15625 -5.46875 C 5.863281 -5.726562 5.4375 -5.859375 4.875 -5.859375 C 4.164062 -5.859375 3.578125 -5.660156 3.109375 -5.265625 C 2.648438 -4.878906 2.34375 -4.304688 2.1875 -3.546875 L 1.484375 0 L 0.59375 0 L 1.90625 -6.609375 L 2.75 -6.609375 L 2.546875 -5.5625 C 3.171875 -6.300781 4.03125 -6.671875 5.125 -6.671875 Z M 5.125 -6.671875 "/></g></g></g><g fill="#3771c1" fill-opacity="1"><g transform="translate(107.414844, 11.577099)"><g><path d="M 3.53125 0.0625 C 2.925781 0.0625 2.394531 -0.0507812 1.9375 -0.28125 C 1.488281 -0.507812 1.140625 -0.835938 0.890625 -1.265625 C 0.648438 -1.691406 0.53125 -2.179688 0.53125 -2.734375 C 0.53125 -3.484375 0.691406 -4.15625 1.015625 -4.75 C 1.347656 -5.34375 1.800781 -5.8125 2.375 -6.15625 C 2.957031 -6.5 3.617188 -6.671875 4.359375 -6.671875 C 5.273438 -6.671875 6.003906 -6.414062 6.546875 -5.90625 C 7.085938 -5.40625 7.359375 -4.726562 7.359375 -3.875 C 7.359375 -3.125 7.191406 -2.445312 6.859375 -1.84375 C 6.535156 -1.25 6.082031 -0.78125 5.5 -0.4375 C 4.914062 -0.101562 4.257812 0.0625 3.53125 0.0625 Z M 3.59375 -0.734375 C 4.144531 -0.734375 4.632812 -0.863281 5.0625 -1.125 C 5.5 -1.382812 5.84375 -1.75 6.09375 -2.21875 C 6.34375 -2.695312 6.46875 -3.234375 6.46875 -3.828125 C 6.46875 -4.472656 6.273438 -4.976562 5.890625 -5.34375 C 5.515625 -5.707031 4.984375 -5.890625 4.296875 -5.890625 C 3.742188 -5.890625 3.25 -5.753906 2.8125 -5.484375 C 2.375 -5.210938 2.03125 -4.835938 1.78125 -4.359375 C 1.539062 -3.890625 1.421875 -3.363281 1.421875 -2.78125 C 1.421875 -2.132812 1.609375 -1.628906 1.984375 -1.265625 C 2.367188 -0.910156 2.90625 -0.734375 3.59375 -0.734375 Z M 3.59375 -0.734375 "/></g></g></g><g fill="#3771c1" fill-opacity="1"><g transform="translate(116.339937, 11.577099)"><g><path d="M 2.515625 0.0625 C 1.984375 0.0625 1.476562 -0.0078125 1 -0.15625 C 0.519531 -0.3125 0.148438 -0.503906 -0.109375 -0.734375 L 0.3125 -1.453125 C 0.5625 -1.234375 0.890625 -1.054688 1.296875 -0.921875 C 1.710938 -0.785156 2.148438 -0.71875 2.609375 -0.71875 C 3.234375 -0.71875 3.710938 -0.816406 4.046875 -1.015625 C 4.390625 -1.222656 4.5625 -1.519531 4.5625 -1.90625 C 4.5625 -2.113281 4.492188 -2.28125 4.359375 -2.40625 C 4.222656 -2.53125 4.050781 -2.625 3.84375 -2.6875 C 3.644531 -2.757812 3.351562 -2.835938 2.96875 -2.921875 C 2.507812 -3.015625 2.132812 -3.113281 1.84375 -3.21875 C 1.5625 -3.320312 1.316406 -3.484375 1.109375 -3.703125 C 0.910156 -3.921875 0.8125 -4.222656 0.8125 -4.609375 C 0.8125 -5.234375 1.070312 -5.734375 1.59375 -6.109375 C 2.113281 -6.484375 2.8125 -6.671875 3.6875 -6.671875 C 4.113281 -6.671875 4.53125 -6.613281 4.9375 -6.5 C 5.34375 -6.382812 5.671875 -6.234375 5.921875 -6.046875 L 5.546875 -5.328125 C 5.296875 -5.515625 5 -5.65625 4.65625 -5.75 C 4.320312 -5.851562 3.972656 -5.90625 3.609375 -5.90625 C 3.003906 -5.90625 2.535156 -5.796875 2.203125 -5.578125 C 1.867188 -5.359375 1.703125 -5.0625 1.703125 -4.6875 C 1.703125 -4.46875 1.769531 -4.289062 1.90625 -4.15625 C 2.050781 -4.03125 2.226562 -3.929688 2.4375 -3.859375 C 2.65625 -3.796875 2.953125 -3.722656 3.328125 -3.640625 C 3.773438 -3.546875 4.140625 -3.445312 4.421875 -3.34375 C 4.703125 -3.25 4.941406 -3.09375 5.140625 -2.875 C 5.347656 -2.65625 5.453125 -2.363281 5.453125 -2 C 5.453125 -1.351562 5.179688 -0.847656 4.640625 -0.484375 C 4.109375 -0.117188 3.398438 0.0625 2.515625 0.0625 Z M 2.515625 0.0625 "/></g></g></g><g fill="#3771c1" fill-opacity="1"><g transform="translate(123.530295, 11.577099)"><g/></g></g><g fill="#3771c1" fill-opacity="1"><g transform="translate(127.867133, 11.577099)"><g><path d="M 1.90625 -6.609375 L 2.796875 -6.609375 L 1.484375 0 L 0.59375 0 Z M 2.734375 -8.0625 C 2.554688 -8.0625 2.410156 -8.117188 2.296875 -8.234375 C 2.179688 -8.359375 2.125 -8.5 2.125 -8.65625 C 2.125 -8.84375 2.1875 -9 2.3125 -9.125 C 2.445312 -9.257812 2.613281 -9.328125 2.8125 -9.328125 C 2.988281 -9.328125 3.132812 -9.269531 3.25 -9.15625 C 3.375 -9.050781 3.4375 -8.921875 3.4375 -8.765625 C 3.4375 -8.566406 3.367188 -8.398438 3.234375 -8.265625 C 3.097656 -8.128906 2.929688 -8.0625 2.734375 -8.0625 Z M 2.734375 -8.0625 "/></g></g></g><g fill="#3771c1" fill-opacity="1"><g transform="translate(132.291965, 11.577099)"><g><path d="M 10 -6.671875 C 10.75 -6.671875 11.328125 -6.484375 11.734375 -6.109375 C 12.140625 -5.734375 12.34375 -5.210938 12.34375 -4.546875 C 12.34375 -4.347656 12.3125 -4.085938 12.25 -3.765625 L 11.5 0 L 10.609375 0 L 11.359375 -3.765625 C 11.398438 -3.960938 11.421875 -4.171875 11.421875 -4.390625 C 11.421875 -4.859375 11.28125 -5.21875 11 -5.46875 C 10.726562 -5.726562 10.320312 -5.859375 9.78125 -5.859375 C 9.113281 -5.859375 8.554688 -5.671875 8.109375 -5.296875 C 7.671875 -4.921875 7.375 -4.367188 7.21875 -3.640625 L 6.484375 0 L 5.59375 0 L 6.359375 -3.765625 C 6.398438 -4.003906 6.421875 -4.207031 6.421875 -4.375 C 6.421875 -4.851562 6.28125 -5.21875 6 -5.46875 C 5.726562 -5.726562 5.320312 -5.859375 4.78125 -5.859375 C 4.101562 -5.859375 3.539062 -5.660156 3.09375 -5.265625 C 2.644531 -4.878906 2.34375 -4.304688 2.1875 -3.546875 L 1.484375 0 L 0.59375 0 L 1.90625 -6.609375 L 2.75 -6.609375 L 2.546875 -5.5625 C 3.148438 -6.300781 3.984375 -6.671875 5.046875 -6.671875 C 5.597656 -6.671875 6.0625 -6.554688 6.4375 -6.328125 C 6.8125 -6.097656 7.066406 -5.769531 7.203125 -5.34375 C 7.535156 -5.78125 7.9375 -6.109375 8.40625 -6.328125 C 8.882812 -6.554688 9.414062 -6.671875 10 -6.671875 Z M 10 -6.671875 "/></g></g></g><g fill="#3771c1" fill-opacity="1"><g transform="translate(146.672696, 11.577099)"><g><path d="M 5.125 -6.671875 C 5.6875 -6.671875 6.1875 -6.554688 6.625 -6.328125 C 7.0625 -6.097656 7.398438 -5.773438 7.640625 -5.359375 C 7.890625 -4.941406 8.015625 -4.445312 8.015625 -3.875 C 8.015625 -3.125 7.851562 -2.445312 7.53125 -1.84375 C 7.207031 -1.25 6.757812 -0.78125 6.1875 -0.4375 C 5.613281 -0.101562 4.972656 0.0625 4.265625 0.0625 C 3.640625 0.0625 3.109375 -0.0546875 2.671875 -0.296875 C 2.242188 -0.546875 1.9375 -0.910156 1.75 -1.390625 L 1 2.4375 L 0.09375 2.4375 L 1.90625 -6.609375 L 2.75 -6.609375 L 2.546875 -5.5625 C 2.859375 -5.914062 3.234375 -6.1875 3.671875 -6.375 C 4.109375 -6.570312 4.59375 -6.671875 5.125 -6.671875 Z M 4.25 -0.734375 C 4.789062 -0.734375 5.273438 -0.863281 5.703125 -1.125 C 6.140625 -1.382812 6.484375 -1.75 6.734375 -2.21875 C 6.984375 -2.695312 7.109375 -3.234375 7.109375 -3.828125 C 7.109375 -4.472656 6.914062 -4.976562 6.53125 -5.34375 C 6.15625 -5.707031 5.625 -5.890625 4.9375 -5.890625 C 4.382812 -5.890625 3.890625 -5.753906 3.453125 -5.484375 C 3.023438 -5.222656 2.6875 -4.851562 2.4375 -4.375 C 2.195312 -3.90625 2.078125 -3.375 2.078125 -2.78125 C 2.078125 -2.132812 2.265625 -1.628906 2.640625 -1.265625 C 3.023438 -0.910156 3.5625 -0.734375 4.25 -0.734375 Z M 4.25 -0.734375 "/></g></g></g><g fill="#3771c1" fill-opacity="1"><g transform="translate(156.2389, 11.577099)"><g><path d="M 3.53125 0.0625 C 2.925781 0.0625 2.394531 -0.0507812 1.9375 -0.28125 C 1.488281 -0.507812 1.140625 -0.835938 0.890625 -1.265625 C 0.648438 -1.691406 0.53125 -2.179688 0.53125 -2.734375 C 0.53125 -3.484375 0.691406 -4.15625 1.015625 -4.75 C 1.347656 -5.34375 1.800781 -5.8125 2.375 -6.15625 C 2.957031 -6.5 3.617188 -6.671875 4.359375 -6.671875 C 5.273438 -6.671875 6.003906 -6.414062 6.546875 -5.90625 C 7.085938 -5.40625 7.359375 -4.726562 7.359375 -3.875 C 7.359375 -3.125 7.191406 -2.445312 6.859375 -1.84375 C 6.535156 -1.25 6.082031 -0.78125 5.5 -0.4375 C 4.914062 -0.101562 4.257812 0.0625 3.53125 0.0625 Z M 3.59375 -0.734375 C 4.144531 -0.734375 4.632812 -0.863281 5.0625 -1.125 C 5.5 -1.382812 5.84375 -1.75 6.09375 -2.21875 C 6.34375 -2.695312 6.46875 -3.234375 6.46875 -3.828125 C 6.46875 -4.472656 6.273438 -4.976562 5.890625 -5.34375 C 5.515625 -5.707031 4.984375 -5.890625 4.296875 -5.890625 C 3.742188 -5.890625 3.25 -5.753906 2.8125 -5.484375 C 2.375 -5.210938 2.03125 -4.835938 1.78125 -4.359375 C 1.539062 -3.890625 1.421875 -3.363281 1.421875 -2.78125 C 1.421875 -2.132812 1.609375 -1.628906 1.984375 -1.265625 C 2.367188 -0.910156 2.90625 -0.734375 3.59375 -0.734375 Z M 3.59375 -0.734375 "/></g></g></g><g fill="#3771c1" fill-opacity="1"><g transform="translate(165.163993, 11.577099)"><g><path d="M 2.53125 -5.40625 C 2.820312 -5.832031 3.1875 -6.148438 3.625 -6.359375 C 4.070312 -6.566406 4.613281 -6.671875 5.25 -6.671875 L 5.078125 -5.796875 L 4.828125 -5.8125 C 4.117188 -5.8125 3.535156 -5.601562 3.078125 -5.1875 C 2.617188 -4.78125 2.3125 -4.171875 2.15625 -3.359375 L 1.484375 0 L 0.59375 0 L 1.90625 -6.609375 L 2.75 -6.609375 Z M 2.53125 -5.40625 "/></g></g></g><g fill="#3771c1" fill-opacity="1"><g transform="translate(171.248131, 11.577099)"><g><path d="M 2.03125 -2 C 1.988281 -1.800781 1.96875 -1.660156 1.96875 -1.578125 C 1.96875 -0.992188 2.289062 -0.703125 2.9375 -0.703125 C 3.3125 -0.703125 3.648438 -0.816406 3.953125 -1.046875 L 4.15625 -0.359375 C 3.78125 -0.078125 3.289062 0.0625 2.6875 0.0625 C 2.195312 0.0625 1.804688 -0.0664062 1.515625 -0.328125 C 1.222656 -0.597656 1.078125 -0.972656 1.078125 -1.453125 C 1.078125 -1.628906 1.09375 -1.800781 1.125 -1.96875 L 1.90625 -5.859375 L 0.734375 -5.859375 L 0.875 -6.609375 L 2.046875 -6.609375 L 2.34375 -8.0625 L 3.234375 -8.0625 L 2.9375 -6.609375 L 4.953125 -6.609375 L 4.8125 -5.859375 L 2.796875 -5.859375 Z M 2.03125 -2 "/></g></g></g><g fill="#3771c1" fill-opacity="1"><g transform="translate(177.395135, 11.577099)"><g><path d="M 7.953125 -6.609375 L 6.625 0 L 5.765625 0 L 5.984375 -1.046875 C 5.671875 -0.691406 5.296875 -0.414062 4.859375 -0.21875 C 4.421875 -0.03125 3.9375 0.0625 3.40625 0.0625 C 2.84375 0.0625 2.34375 -0.046875 1.90625 -0.265625 C 1.46875 -0.492188 1.128906 -0.820312 0.890625 -1.25 C 0.648438 -1.675781 0.53125 -2.171875 0.53125 -2.734375 C 0.53125 -3.484375 0.691406 -4.15625 1.015625 -4.75 C 1.335938 -5.34375 1.78125 -5.8125 2.34375 -6.15625 C 2.914062 -6.5 3.554688 -6.671875 4.265625 -6.671875 C 4.890625 -6.671875 5.414062 -6.546875 5.84375 -6.296875 C 6.269531 -6.046875 6.582031 -5.691406 6.78125 -5.234375 L 7.0625 -6.609375 Z M 3.59375 -0.734375 C 4.144531 -0.734375 4.632812 -0.863281 5.0625 -1.125 C 5.5 -1.382812 5.84375 -1.75 6.09375 -2.21875 C 6.34375 -2.695312 6.46875 -3.234375 6.46875 -3.828125 C 6.46875 -4.472656 6.273438 -4.976562 5.890625 -5.34375 C 5.515625 -5.707031 4.984375 -5.890625 4.296875 -5.890625 C 3.742188 -5.890625 3.25 -5.753906 2.8125 -5.484375 C 2.375 -5.210938 2.03125 -4.835938 1.78125 -4.359375 C 1.539062 -3.890625 1.421875 -3.363281 1.421875 -2.78125 C 1.421875 -2.132812 1.609375 -1.628906 1.984375 -1.265625 C 2.367188 -0.910156 2.90625 -0.734375 3.59375 -0.734375 Z M 3.59375 -0.734375 "/></g></g></g></g></g><g fill="#2073b7" fill-opacity="0.4"><g transform="translate(99.678374, 201.193405)"><g/></g></g><g fill="#2073b7" fill-opacity="0.4"><g transform="translate(110.002592, 201.193405)"><g><path d="M 30.28125 -24.984375 C 26.875 -24.984375 24.320312 -23.042969 22.710938 -20.441406 C 21.480469 -23.234375 18.878906 -24.984375 15.140625 -24.984375 C 11.925781 -24.984375 9.652344 -23.28125 8.1875 -20.914062 L 8.1875 -24.414062 L 2.414062 -24.414062 L 2.414062 0 L 8.375 0 L 8.375 -13.4375 C 8.375 -18.027344 10.882812 -19.824219 13.390625 -19.824219 C 16.230469 -19.824219 17.648438 -18.3125 17.648438 -15.1875 L 17.648438 0 L 23.5625 0 L 23.5625 -13.4375 C 23.5625 -18.027344 26.023438 -19.824219 28.628906 -19.824219 C 31.464844 -19.824219 32.839844 -18.3125 32.839844 -15.1875 L 32.839844 0 L 38.800781 0 L 38.800781 -16.136719 C 38.800781 -21.53125 35.726562 -24.984375 30.28125 -24.984375 Z M 30.28125 -24.984375 "/></g></g></g><g fill="#2073b7" fill-opacity="0.4"><g transform="translate(151.303035, 201.193405)"><g><path d="M 13.484375 0.566406 C 19.351562 0.566406 23.5625 -2.648438 24.839844 -7.570312 L 19.070312 -7.570312 C 18.21875 -5.394531 16.371094 -4.070312 13.53125 -4.070312 C 10.078125 -4.070312 7.664062 -6.054688 7.191406 -10.363281 L 25.457031 -10.363281 L 25.457031 -11.78125 C 25.457031 -19.542969 20.867188 -24.984375 13.390625 -24.984375 C 6.152344 -24.984375 1.324219 -19.875 1.324219 -12.207031 C 1.324219 -4.402344 6.292969 0.566406 13.484375 0.566406 Z M 7.238281 -14.527344 C 7.808594 -18.5 10.171875 -20.347656 13.34375 -20.347656 C 16.890625 -20.347656 19.023438 -17.980469 19.496094 -14.527344 Z M 7.238281 -14.527344 "/></g></g></g><g fill="#2073b7" fill-opacity="0.4"><g transform="translate(178.268965, 201.193405)"><g><path d="M 19.824219 -21.246094 C 18.167969 -23.613281 15.660156 -24.984375 12.300781 -24.984375 C 5.535156 -24.984375 1.324219 -19.96875 1.324219 -12.207031 C 1.324219 -4.449219 5.535156 0.566406 12.300781 0.566406 C 15.804688 0.566406 18.359375 -0.945312 20.015625 -3.40625 L 20.015625 0 L 25.789062 0 L 25.789062 -33.691406 L 19.824219 -33.691406 Z M 13.675781 -4.351562 C 9.84375 -4.351562 7.429688 -6.859375 7.429688 -12.019531 C 7.429688 -17.175781 9.84375 -20.0625 13.675781 -20.0625 C 17.554688 -20.0625 19.96875 -17.367188 19.96875 -12.207031 C 19.96875 -7.050781 17.554688 -4.351562 13.675781 -4.351562 Z M 13.675781 -4.351562 "/></g></g></g><g fill="#2073b7" fill-opacity="0.4"><g transform="translate(206.565086, 201.193405)"><g><path d="M 13.484375 0.566406 C 19.351562 0.566406 23.5625 -2.648438 24.839844 -7.570312 L 19.070312 -7.570312 C 18.21875 -5.394531 16.371094 -4.070312 13.53125 -4.070312 C 10.078125 -4.070312 7.664062 -6.054688 7.191406 -10.363281 L 25.457031 -10.363281 L 25.457031 -11.78125 C 25.457031 -19.542969 20.867188 -24.984375 13.390625 -24.984375 C 6.152344 -24.984375 1.324219 -19.875 1.324219 -12.207031 C 1.324219 -4.402344 6.292969 0.566406 13.484375 0.566406 Z M 7.238281 -14.527344 C 7.808594 -18.5 10.171875 -20.347656 13.34375 -20.347656 C 16.890625 -20.347656 19.023438 -17.980469 19.496094 -14.527344 Z M 7.238281 -14.527344 "/></g></g></g><g fill="#2073b7" fill-opacity="0.4"><g transform="translate(233.531016, 201.193405)"><g><path d="M 24.464844 -24.414062 L 17.792969 -24.414062 L 16.515625 -22.617188 C 15.234375 -20.726562 13.863281 -18.738281 12.632812 -16.84375 C 11.355469 -18.785156 10.078125 -20.679688 8.707031 -22.617188 L 7.429688 -24.414062 L 0.613281 -24.414062 L 9.273438 -12.445312 L 0.140625 0 L 6.8125 0 L 7.710938 -1.277344 C 9.320312 -3.546875 10.929688 -5.914062 12.492188 -8.1875 C 14.054688 -5.914062 15.613281 -3.597656 17.222656 -1.277344 L 18.121094 0 L 24.9375 0 L 15.851562 -12.539062 Z M 24.464844 -24.414062 "/></g></g></g><g fill="#2073b7" fill-opacity="0.4"><g transform="translate(258.699215, 201.193405)"><g><path d="M 24.367188 0 C 23.707031 -0.945312 23.375 -2.886719 23.375 -4.636719 L 23.375 -17.648438 C 23.375 -22.050781 20.488281 -24.984375 13.203125 -24.984375 C 5.582031 -24.984375 2.554688 -21.8125 2.222656 -16.65625 L 8.089844 -16.65625 C 8.328125 -19.636719 9.746094 -20.535156 13.152344 -20.535156 C 16.609375 -20.535156 17.601562 -19.398438 17.601562 -17.507812 C 17.601562 -15.710938 16.417969 -15 14.148438 -14.714844 L 10.457031 -14.382812 C 3.546875 -13.722656 1.089844 -10.835938 1.089844 -6.765625 C 1.089844 -2.035156 4.683594 0.566406 9.890625 0.566406 C 13.484375 0.566406 16.136719 -0.710938 17.742188 -2.980469 C 17.839844 -1.796875 18.027344 -0.664062 18.40625 0 Z M 11.308594 -3.691406 C 8.566406 -3.691406 7.191406 -4.96875 7.191406 -7.003906 C 7.191406 -8.941406 8.28125 -10.125 11.59375 -10.503906 L 14.808594 -10.882812 C 16.089844 -11.023438 16.988281 -11.308594 17.601562 -11.875 L 17.601562 -9.652344 C 17.601562 -5.394531 14.480469 -3.691406 11.308594 -3.691406 Z M 11.308594 -3.691406 "/></g></g></g><g fill="#3771c1" fill-opacity="1"><g transform="translate(99.301961, 200.816999)"><g/></g></g><g fill="#3771c1" fill-opacity="1"><g transform="translate(109.626179, 200.816999)"><g><path d="M 30.28125 -24.984375 C 26.875 -24.984375 24.320312 -23.042969 22.710938 -20.441406 C 21.480469 -23.234375 18.878906 -24.984375 15.140625 -24.984375 C 11.925781 -24.984375 9.652344 -23.28125 8.1875 -20.914062 L 8.1875 -24.414062 L 2.414062 -24.414062 L 2.414062 0 L 8.375 0 L 8.375 -13.4375 C 8.375 -18.027344 10.882812 -19.824219 13.390625 -19.824219 C 16.230469 -19.824219 17.648438 -18.3125 17.648438 -15.1875 L 17.648438 0 L 23.5625 0 L 23.5625 -13.4375 C 23.5625 -18.027344 26.023438 -19.824219 28.628906 -19.824219 C 31.464844 -19.824219 32.839844 -18.3125 32.839844 -15.1875 L 32.839844 0 L 38.800781 0 L 38.800781 -16.136719 C 38.800781 -21.53125 35.726562 -24.984375 30.28125 -24.984375 Z M 30.28125 -24.984375 "/></g></g></g><g fill="#3771c1" fill-opacity="1"><g transform="translate(150.926622, 200.816999)"><g><path d="M 13.484375 0.566406 C 19.351562 0.566406 23.5625 -2.648438 24.839844 -7.570312 L 19.070312 -7.570312 C 18.21875 -5.394531 16.371094 -4.070312 13.53125 -4.070312 C 10.078125 -4.070312 7.664062 -6.054688 7.191406 -10.363281 L 25.457031 -10.363281 L 25.457031 -11.78125 C 25.457031 -19.542969 20.867188 -24.984375 13.390625 -24.984375 C 6.152344 -24.984375 1.324219 -19.875 1.324219 -12.207031 C 1.324219 -4.402344 6.292969 0.566406 13.484375 0.566406 Z M 7.238281 -14.527344 C 7.808594 -18.5 10.171875 -20.347656 13.34375 -20.347656 C 16.890625 -20.347656 19.023438 -17.980469 19.496094 -14.527344 Z M 7.238281 -14.527344 "/></g></g></g><g fill="#3771c1" fill-opacity="1"><g transform="translate(177.892551, 200.816999)"><g><path d="M 19.824219 -21.246094 C 18.167969 -23.613281 15.660156 -24.984375 12.300781 -24.984375 C 5.535156 -24.984375 1.324219 -19.96875 1.324219 -12.207031 C 1.324219 -4.449219 5.535156 0.566406 12.300781 0.566406 C 15.804688 0.566406 18.359375 -0.945312 20.015625 -3.40625 L 20.015625 0 L 25.789062 0 L 25.789062 -33.691406 L 19.824219 -33.691406 Z M 13.675781 -4.351562 C 9.84375 -4.351562 7.429688 -6.859375 7.429688 -12.019531 C 7.429688 -17.175781 9.84375 -20.0625 13.675781 -20.0625 C 17.554688 -20.0625 19.96875 -17.367188 19.96875 -12.207031 C 19.96875 -7.050781 17.554688 -4.351562 13.675781 -4.351562 Z M 13.675781 -4.351562 "/></g></g></g><g fill="#629ceb" fill-opacity="1"><g transform="translate(206.188672, 200.816999)"><g><path d="M 13.484375 0.566406 C 19.351562 0.566406 23.5625 -2.648438 24.839844 -7.570312 L 19.070312 -7.570312 C 18.21875 -5.394531 16.371094 -4.070312 13.53125 -4.070312 C 10.078125 -4.070312 7.664062 -6.054688 7.191406 -10.363281 L 25.457031 -10.363281 L 25.457031 -11.78125 C 25.457031 -19.542969 20.867188 -24.984375 13.390625 -24.984375 C 6.152344 -24.984375 1.324219 -19.875 1.324219 -12.207031 C 1.324219 -4.402344 6.292969 0.566406 13.484375 0.566406 Z M 7.238281 -14.527344 C 7.808594 -18.5 10.171875 -20.347656 13.34375 -20.347656 C 16.890625 -20.347656 19.023438 -17.980469 19.496094 -14.527344 Z M 7.238281 -14.527344 "/></g></g></g><g fill="#629ceb" fill-opacity="1"><g transform="translate(233.154602, 200.816999)"><g><path d="M 24.464844 -24.414062 L 17.792969 -24.414062 L 16.515625 -22.617188 C 15.234375 -20.726562 13.863281 -18.738281 12.632812 -16.84375 C 11.355469 -18.785156 10.078125 -20.679688 8.707031 -22.617188 L 7.429688 -24.414062 L 0.613281 -24.414062 L 9.273438 -12.445312 L 0.140625 0 L 6.8125 0 L 7.710938 -1.277344 C 9.320312 -3.546875 10.929688 -5.914062 12.492188 -8.1875 C 14.054688 -5.914062 15.613281 -3.597656 17.222656 -1.277344 L 18.121094 0 L 24.9375 0 L 15.851562 -12.539062 Z M 24.464844 -24.414062 "/></g></g></g><g fill="#629ceb" fill-opacity="1"><g transform="translate(258.322802, 200.816999)"><g><path d="M 24.367188 0 C 23.707031 -0.945312 23.375 -2.886719 23.375 -4.636719 L 23.375 -17.648438 C 23.375 -22.050781 20.488281 -24.984375 13.203125 -24.984375 C 5.582031 -24.984375 2.554688 -21.8125 2.222656 -16.65625 L 8.089844 -16.65625 C 8.328125 -19.636719 9.746094 -20.535156 13.152344 -20.535156 C 16.609375 -20.535156 17.601562 -19.398438 17.601562 -17.507812 C 17.601562 -15.710938 16.417969 -15 14.148438 -14.714844 L 10.457031 -14.382812 C 3.546875 -13.722656 1.089844 -10.835938 1.089844 -6.765625 C 1.089844 -2.035156 4.683594 0.566406 9.890625 0.566406 C 13.484375 0.566406 16.136719 -0.710938 17.742188 -2.980469 C 17.839844 -1.796875 18.027344 -0.664062 18.40625 0 Z M 11.308594 -3.691406 C 8.566406 -3.691406 7.191406 -4.96875 7.191406 -7.003906 C 7.191406 -8.941406 8.28125 -10.125 11.59375 -10.503906 L 14.808594 -10.882812 C 16.089844 -11.023438 16.988281 -11.308594 17.601562 -11.875 L 17.601562 -9.652344 C 17.601562 -5.394531 14.480469 -3.691406 11.308594 -3.691406 Z M 11.308594 -3.691406 "/></g></g></g></svg>